<?xml version="1.0" encoding="UTF-8" standalone="no"?>
<!DOCTYPE svg PUBLIC "-//W3C//DTD SVG 1.1//EN" "http://www.w3.org/Graphics/SVG/1.1/DTD/svg11.dtd">
<svg width="100%" height="100%" viewBox="0 0 780 673" version="1.1" xmlns="http://www.w3.org/2000/svg" xmlns:xlink="http://www.w3.org/1999/xlink" xml:space="preserve" xmlns:serif="http://www.serif.com/" style="fill-rule:evenodd;clip-rule:evenodd;stroke-linejoin:round;stroke-miterlimit:2;">
    <g transform="matrix(1,0,0,1,-14.528075,-60.258279)">
        <g transform="matrix(2.537496,0,0,2.537496,-66.814286,-21.640338)">
            <g transform="matrix(0.47171,0,0,0.47171,-0.046646,-24.93149)">
                <path d="M486.968,410.507C488.969,342.486 449.184,286.468 393.328,263.922C366.16,252.957 322.331,248.502 280.436,261.294C233.919,275.497 202.421,326.849 137.438,308.716C51.503,284.737 37.099,154.085 141.618,125.95C157.168,121.764 157.331,121.203 303.5,121.479C346.687,121.56 440.351,113.447 528.164,191.886C645.545,296.737 662.65,495.994 530.798,613.841C447.01,688.729 349.808,682.387 336.5,682.465C269.093,682.859 174.195,689.332 116.859,598.273C100.185,571.791 92.881,531.834 95.284,508.475C103.587,427.776 151.434,402.522 206.835,364.998C217.846,357.54 206.773,370.177 204.927,390.547C198.631,460.036 220.71,498.273 260.845,527.011C347.925,589.363 481.731,530.842 486.968,410.507ZM671.09,586.704C697.582,586.704 719.09,608.212 719.09,634.704C719.09,661.196 697.582,682.704 671.09,682.704C644.598,682.704 623.09,661.196 623.09,634.704C623.09,608.212 644.598,586.704 671.09,586.704Z" style="fill:rgb(28,162,252);"/>
            </g>
        </g>
    </g>
</svg>
