<svg xmlns="http://www.w3.org/2000/svg" xml:space="preserve" style="fill-rule:evenodd;clip-rule:evenodd;stroke-linejoin:round;stroke-miterlimit:2" viewBox="0 0 192 192"><path d="M-16.56 0h225.12v192H-16.56z" style="fill:#363636"/><path d="M144.912 98.913c.692-23.262-13.07-42.42-32.393-50.13-9.398-3.75-24.56-5.274-39.052-.899C57.376 52.741 46.48 70.303 24 64.102c-29.727-8.2-34.71-52.881 1.446-62.503C30.825.168 30.881-.024 81.445.07c14.94.028 47.34-2.747 77.717 24.078 40.605 35.857 46.522 104 .911 144.302-28.984 25.611-62.609 23.442-67.213 23.469-23.318.135-56.145 2.348-75.979-28.793-5.768-9.056-8.294-22.721-7.463-30.709 2.872-27.598 19.423-36.234 38.588-49.067 3.809-2.55-.022 1.771-.66 8.737-2.178 23.764 5.46 36.841 19.343 46.669 30.123 21.323 76.41 1.31 78.222-39.843Z" style="fill:#5d67e6"/></svg>