<svg xmlns="http://www.w3.org/2000/svg" xml:space="preserve" style="fill-rule:evenodd;clip-rule:evenodd;stroke-linejoin:round;stroke-miterlimit:2" viewBox="0 0 800 800"><path d="M229.661 168.709c.944-32.086-17.823-58.511-44.171-69.146-12.815-5.172-33.49-7.274-53.252-1.239-21.942 6.699-36.8 30.923-67.454 22.369-40.536-11.311-47.331-72.941 1.972-86.213 7.335-1.974 7.412-2.239 76.361-2.109 20.372.039 64.555-3.788 105.977 33.212 55.37 49.459 63.438 143.451 1.242 199.041-39.524 35.325-85.374 32.334-91.652 32.37-31.797.186-76.561 3.24-103.607-39.714-7.866-12.492-11.311-31.34-10.177-42.359 3.916-38.066 26.486-49.979 52.62-67.679 5.193-3.518-.03 2.443-.9 12.051-2.971 32.779 7.445 50.816 26.377 64.372 41.076 29.412 104.194 1.807 106.664-54.956Z" style="fill:#5d67e6" transform="matrix(3.0556 0 0 3.02079 -97.95 -97.497)"/></svg>