<svg xmlns="http://www.w3.org/2000/svg" xml:space="preserve" style="fill-rule:evenodd;clip-rule:evenodd;stroke-linejoin:round;stroke-miterlimit:2" viewBox="0 0 1157 127"><path d="M229.661 168.709c.944-32.086-17.823-58.511-44.171-69.146-12.815-5.172-33.49-7.274-53.252-1.239-21.942 6.699-36.8 30.923-67.454 22.369-40.536-11.311-47.331-72.941 1.972-86.213 7.335-1.974 7.412-2.239 76.361-2.109 20.372.039 64.555-3.788 105.977 33.212 55.37 49.459 63.438 143.451 1.242 199.041-39.524 35.325-85.374 32.334-91.652 32.37-31.797.186-76.561 3.24-103.607-39.714-7.866-12.492-11.311-31.34-10.177-42.359 3.916-38.066 26.486-49.979 52.62-67.679 5.193-3.518-.03 2.443-.9 12.051-2.971 32.779 7.445 50.816 26.377 64.372 41.076 29.412 104.194 1.807 106.664-54.956Z" style="fill:#5d67e6" transform="matrix(.48356 0 0 .47806 -15.501 -15.43)"/><path d="M.322 0H.133v-.128h.182a.256.256 0 0 0 .117-.025.163.163 0 0 0 .072-.077.325.325 0 0 0 .024-.134.316.316 0 0 0-.024-.133.155.155 0 0 0-.072-.077.241.241 0 0 0-.117-.025H.13v-.129h.194c.073 0 .136.015.189.044a.304.304 0 0 1 .121.125.419.419 0 0 1 .042.195.422.422 0 0 1-.042.195.294.294 0 0 1-.122.125.392.392 0 0 1-.19.044ZM.215-.728V0H.066v-.728h.149Z" style="fill:#5d67e6;fill-rule:nonzero" transform="matrix(169.20039 0 0 169.28088 145.48 124.811)"/><path d="m.024 0 .249-.728h.195L.723 0H.557L.441-.351a8.42 8.42 0 0 1-.089-.325h.033l-.044.177a2.997 2.997 0 0 1-.04.148L.188 0H.024Zm.155-.169v-.117h.388v.117H.179Z" style="fill:#5d67e6;fill-rule:nonzero" transform="matrix(169.20039 0 0 169.28088 249.575 124.811)"/><path d="M.037-.604v-.124h.594v.124H.409V0h-.15v-.604H.037Z" style="fill:#5d67e6;fill-rule:nonzero" transform="matrix(169.20039 0 0 169.28088 349.87 124.811)"/><path d="m.024 0 .249-.728h.195L.723 0H.557L.441-.351a8.42 8.42 0 0 1-.089-.325h.033l-.044.177a2.997 2.997 0 0 1-.04.148L.188 0H.024Zm.155-.169v-.117h.388v.117H.179Z" style="fill:#5d67e6;fill-rule:nonzero" transform="matrix(169.20039 0 0 169.28088 436.804 124.811)"/><path d="M.277.01a.255.255 0 0 1-.179-.06C.055-.089.033-.145.033-.219v-.042h.149v.045c0 .034.009.061.026.079a.09.09 0 0 0 .069.026.09.09 0 0 0 .069-.026.118.118 0 0 0 .025-.08v-.511h.148v.509c0 .073-.022.13-.065.169a.25.25 0 0 1-.177.06Z" style="fill:#5d67e6;fill-rule:nonzero" transform="matrix(169.20039 0 0 169.28088 552.136 124.811)"/><path d="m.024 0 .249-.728h.195L.723 0H.557L.441-.351a8.42 8.42 0 0 1-.089-.325h.033l-.044.177a2.997 2.997 0 0 1-.04.148L.188 0H.024Zm.155-.169v-.117h.388v.117H.179Z" style="fill:#5d67e6;fill-rule:nonzero" transform="matrix(169.20039 0 0 169.28088 636.688 124.811)"/><path d="M.388.01a.34.34 0 0 1-.179-.046.316.316 0 0 1-.12-.128.426.426 0 0 1-.043-.199c0-.078.015-.146.045-.202a.325.325 0 0 1 .121-.128.378.378 0 0 1 .287-.027.278.278 0 0 1 .196.227H.543A.182.182 0 0 0 .522-.54a.162.162 0 0 0-.034-.035.135.135 0 0 0-.045-.022.194.194 0 0 0-.155.02.19.19 0 0 0-.067.082.32.32 0 0 0-.024.131c0 .051.008.095.024.131a.183.183 0 0 0 .067.082.176.176 0 0 0 .101.028.2.2 0 0 0 .091-.019.13.13 0 0 0 .057-.054.157.157 0 0 0 .02-.083l.032.005H.4v-.114h.302v.091a.314.314 0 0 1-.04.164.273.273 0 0 1-.112.106.352.352 0 0 1-.162.037Z" style="fill:#5d67e6;fill-rule:nonzero" transform="matrix(169.20039 0 0 169.28088 744.915 124.811)"/><path d="M.066 0v-.728h.487v.124H.215v.176h.312v.121H.215v.183h.339V0H.066Z" style="fill:#5d67e6;fill-rule:nonzero" transform="matrix(169.20039 0 0 169.28088 860.914 124.811)"/><path d="M.066 0v-.728H.35c.055 0 .102.01.141.03a.206.206 0 0 1 .088.082.244.244 0 0 1 .031.125c0 .048-.011.09-.031.124a.207.207 0 0 1-.09.08.341.341 0 0 1-.143.027H.154v-.12h.168a.177.177 0 0 0 .075-.013.081.081 0 0 0 .044-.037.115.115 0 0 0 .015-.061.121.121 0 0 0-.015-.062.083.083 0 0 0-.044-.038.18.18 0 0 0-.075-.014H.215V0H.066Zm.405 0L.294-.331h.161L.636 0H.471Z" style="fill:#5d67e6;fill-rule:nonzero" transform="matrix(169.20039 0 0 169.28088 952.689 124.811)"/><path d="M.333.011a.39.39 0 0 1-.152-.027.22.22 0 0 1-.14-.21h.145c.002.025.01.045.022.062a.13.13 0 0 0 .051.037.201.201 0 0 0 .072.012c.027 0 .05-.004.07-.012a.112.112 0 0 0 .046-.032.078.078 0 0 0 .016-.049.06.06 0 0 0-.015-.042.115.115 0 0 0-.042-.029A.424.424 0 0 0 .338-.3l-.08-.02a.323.323 0 0 1-.145-.071.163.163 0 0 1-.052-.127c0-.044.012-.082.035-.115A.236.236 0 0 1 .194-.71a.348.348 0 0 1 .141-.027c.053 0 .1.009.14.027a.207.207 0 0 1 .129.19H.46a.092.092 0 0 0-.038-.068.149.149 0 0 0-.089-.024.18.18 0 0 0-.065.011.088.088 0 0 0-.04.03.067.067 0 0 0-.014.043c0 .018.005.033.016.045a.125.125 0 0 0 .043.029.475.475 0 0 0 .057.018l.066.016c.03.007.059.016.085.028.027.012.05.026.07.043a.196.196 0 0 1 .046.061c.011.023.016.05.016.081a.202.202 0 0 1-.033.115.21.21 0 0 1-.096.076.381.381 0 0 1-.151.027Z" style="fill:#5d67e6;fill-rule:nonzero" transform="matrix(169.20039 0 0 169.28088 1052.811 124.811)"/></svg>