<?xml version="1.0" encoding="UTF-8" standalone="no"?>
<!DOCTYPE svg PUBLIC "-//W3C//DTD SVG 1.1//EN" "http://www.w3.org/Graphics/SVG/1.1/DTD/svg11.dtd">
<svg width="100%" height="100%" viewBox="0 0 1157 127" version="1.1" xmlns="http://www.w3.org/2000/svg" xmlns:xlink="http://www.w3.org/1999/xlink" xml:space="preserve" xmlns:serif="http://www.serif.com/" style="fill-rule:evenodd;clip-rule:evenodd;stroke-linejoin:round;stroke-miterlimit:2;">
    <g transform="matrix(1,0,0,1,-268.919524,-336.697875)">
        <g transform="matrix(0.483564,0,0,0.478055,253.418337,321.268468)">
            <path d="M229.661,168.709C230.605,136.623 211.838,110.198 185.49,99.563C172.675,94.391 152,92.289 132.238,98.324C110.296,105.023 95.438,129.247 64.784,120.693C24.248,109.382 17.453,47.752 66.756,34.48C74.091,32.506 74.168,32.241 143.117,32.371C163.489,32.41 207.672,28.583 249.094,65.583C304.464,115.042 312.532,209.034 250.336,264.624C210.812,299.949 164.962,296.958 158.684,296.994C126.887,297.18 82.123,300.234 55.077,257.28C47.211,244.788 43.766,225.94 44.9,214.921C48.816,176.855 71.386,164.942 97.52,147.242C102.713,143.724 97.49,149.685 96.62,159.293C93.649,192.072 104.065,210.109 122.997,223.665C164.073,253.077 227.191,225.472 229.661,168.709Z" style="fill:rgb(93,103,230);"/>
        </g>
        <g transform="matrix(1.212963,0,0,1.21354,54.150159,-146.474273)">
            <g transform="matrix(139.493446,0,0,139.493446,297,501)">
                <path d="M0.322,-0L0.133,-0L0.133,-0.128L0.315,-0.128C0.361,-0.128 0.401,-0.137 0.432,-0.153C0.464,-0.17 0.488,-0.196 0.504,-0.23C0.52,-0.265 0.528,-0.31 0.528,-0.364C0.528,-0.418 0.52,-0.463 0.504,-0.497C0.488,-0.532 0.464,-0.558 0.432,-0.574C0.401,-0.591 0.362,-0.599 0.315,-0.599L0.13,-0.599L0.13,-0.728L0.324,-0.728C0.397,-0.728 0.46,-0.713 0.513,-0.684C0.565,-0.655 0.605,-0.613 0.634,-0.559C0.662,-0.505 0.676,-0.44 0.676,-0.364C0.676,-0.289 0.662,-0.223 0.634,-0.169C0.606,-0.115 0.565,-0.073 0.512,-0.044C0.459,-0.015 0.395,-0 0.322,-0ZM0.215,-0.728L0.215,-0L0.066,-0L0.066,-0.728L0.215,-0.728Z" style="fill:rgb(93,103,230);fill-rule:nonzero;"/>
            </g>
            <g transform="matrix(139.493446,0,0,139.493446,382.818436,501)">
                <path d="M0.024,-0L0.273,-0.728L0.468,-0.728L0.723,-0L0.557,-0L0.441,-0.351C0.426,-0.396 0.412,-0.446 0.398,-0.5C0.383,-0.554 0.368,-0.613 0.352,-0.676L0.385,-0.676C0.369,-0.612 0.355,-0.553 0.341,-0.499C0.328,-0.445 0.314,-0.395 0.301,-0.351L0.188,-0L0.024,-0ZM0.179,-0.169L0.179,-0.286L0.567,-0.286L0.567,-0.169L0.179,-0.169Z" style="fill:rgb(93,103,230);fill-rule:nonzero;"/>
            </g>
            <g transform="matrix(139.493446,0,0,139.493446,465.504761,501)">
                <path d="M0.037,-0.604L0.037,-0.728L0.631,-0.728L0.631,-0.604L0.409,-0.604L0.409,-0L0.259,-0L0.259,-0.604L0.037,-0.604Z" style="fill:rgb(93,103,230);fill-rule:nonzero;"/>
            </g>
            <g transform="matrix(139.493446,0,0,139.493446,537.174843,501)">
                <path d="M0.024,-0L0.273,-0.728L0.468,-0.728L0.723,-0L0.557,-0L0.441,-0.351C0.426,-0.396 0.412,-0.446 0.398,-0.5C0.383,-0.554 0.368,-0.613 0.352,-0.676L0.385,-0.676C0.369,-0.612 0.355,-0.553 0.341,-0.499C0.328,-0.445 0.314,-0.395 0.301,-0.351L0.188,-0L0.024,-0ZM0.179,-0.169L0.179,-0.286L0.567,-0.286L0.567,-0.169L0.179,-0.169Z" style="fill:rgb(93,103,230);fill-rule:nonzero;"/>
            </g>
            <g transform="matrix(139.493446,0,0,139.493446,632.257559,501)">
                <path d="M0.277,0.01C0.201,0.01 0.142,-0.01 0.098,-0.05C0.055,-0.089 0.033,-0.145 0.033,-0.219L0.033,-0.261L0.182,-0.261L0.182,-0.216C0.182,-0.182 0.191,-0.155 0.208,-0.137C0.225,-0.119 0.248,-0.111 0.277,-0.111C0.306,-0.111 0.329,-0.119 0.346,-0.137C0.362,-0.155 0.371,-0.182 0.371,-0.217L0.371,-0.728L0.519,-0.728L0.519,-0.219C0.519,-0.146 0.497,-0.089 0.454,-0.05C0.411,-0.01 0.352,0.01 0.277,0.01Z" style="fill:rgb(93,103,230);fill-rule:nonzero;"/>
            </g>
            <g transform="matrix(139.493446,0,0,139.493446,701.9647,501)">
                <path d="M0.024,-0L0.273,-0.728L0.468,-0.728L0.723,-0L0.557,-0L0.441,-0.351C0.426,-0.396 0.412,-0.446 0.398,-0.5C0.383,-0.554 0.368,-0.613 0.352,-0.676L0.385,-0.676C0.369,-0.612 0.355,-0.553 0.341,-0.499C0.328,-0.445 0.314,-0.395 0.301,-0.351L0.188,-0L0.024,-0ZM0.179,-0.169L0.179,-0.286L0.567,-0.286L0.567,-0.169L0.179,-0.169Z" style="fill:rgb(93,103,230);fill-rule:nonzero;"/>
            </g>
            <g transform="matrix(139.493446,0,0,139.493446,791.189781,501)">
                <path d="M0.388,0.01C0.32,0.01 0.261,-0.005 0.209,-0.036C0.158,-0.066 0.118,-0.109 0.089,-0.164C0.06,-0.22 0.046,-0.286 0.046,-0.363C0.046,-0.441 0.061,-0.509 0.091,-0.565C0.121,-0.62 0.161,-0.663 0.212,-0.693C0.263,-0.722 0.321,-0.737 0.385,-0.737C0.426,-0.737 0.464,-0.731 0.499,-0.72C0.534,-0.708 0.566,-0.691 0.594,-0.669C0.621,-0.647 0.644,-0.621 0.661,-0.591C0.678,-0.562 0.69,-0.529 0.695,-0.493L0.543,-0.493C0.538,-0.51 0.531,-0.526 0.522,-0.54C0.512,-0.554 0.501,-0.565 0.488,-0.575C0.475,-0.585 0.46,-0.592 0.443,-0.597C0.426,-0.602 0.408,-0.605 0.387,-0.605C0.35,-0.605 0.317,-0.596 0.288,-0.577C0.26,-0.558 0.237,-0.531 0.221,-0.495C0.205,-0.459 0.197,-0.416 0.197,-0.364C0.197,-0.313 0.205,-0.269 0.221,-0.233C0.237,-0.197 0.259,-0.17 0.288,-0.151C0.316,-0.132 0.35,-0.123 0.389,-0.123C0.424,-0.123 0.454,-0.129 0.48,-0.142C0.505,-0.154 0.524,-0.173 0.537,-0.196C0.551,-0.219 0.557,-0.247 0.557,-0.279L0.589,-0.274L0.4,-0.274L0.4,-0.388L0.702,-0.388L0.702,-0.297C0.702,-0.233 0.689,-0.178 0.662,-0.133C0.635,-0.087 0.598,-0.052 0.55,-0.027C0.503,-0.003 0.449,0.01 0.388,0.01Z" style="fill:rgb(93,103,230);fill-rule:nonzero;"/>
            </g>
            <g transform="matrix(139.493446,0,0,139.493446,886.823139,501)">
                <path d="M0.066,-0L0.066,-0.728L0.553,-0.728L0.553,-0.604L0.215,-0.604L0.215,-0.428L0.527,-0.428L0.527,-0.307L0.215,-0.307L0.215,-0.124L0.554,-0.124L0.554,-0L0.066,-0Z" style="fill:rgb(93,103,230);fill-rule:nonzero;"/>
            </g>
            <g transform="matrix(139.493446,0,0,139.493446,962.484675,501)">
                <path d="M0.066,-0L0.066,-0.728L0.35,-0.728C0.405,-0.728 0.452,-0.718 0.491,-0.698C0.529,-0.679 0.559,-0.651 0.579,-0.616C0.6,-0.58 0.61,-0.538 0.61,-0.491C0.61,-0.443 0.599,-0.401 0.579,-0.367C0.558,-0.332 0.528,-0.306 0.489,-0.287C0.45,-0.269 0.402,-0.26 0.346,-0.26L0.154,-0.26L0.154,-0.38L0.322,-0.38C0.353,-0.38 0.378,-0.384 0.397,-0.393C0.417,-0.401 0.432,-0.413 0.441,-0.43C0.451,-0.446 0.456,-0.467 0.456,-0.491C0.456,-0.515 0.451,-0.536 0.441,-0.553C0.432,-0.57 0.417,-0.583 0.397,-0.591C0.378,-0.6 0.352,-0.605 0.322,-0.605L0.215,-0.605L0.215,-0L0.066,-0ZM0.471,-0L0.294,-0.331L0.455,-0.331L0.636,-0L0.471,-0Z" style="fill:rgb(93,103,230);fill-rule:nonzero;"/>
            </g>
            <g transform="matrix(139.493446,0,0,139.493446,1045.028212,501)">
                <path d="M0.333,0.011C0.274,0.011 0.224,0.002 0.181,-0.016C0.137,-0.034 0.104,-0.061 0.08,-0.096C0.056,-0.131 0.043,-0.174 0.041,-0.226L0.186,-0.226C0.188,-0.201 0.196,-0.181 0.208,-0.164C0.221,-0.148 0.238,-0.136 0.259,-0.127C0.28,-0.119 0.304,-0.115 0.331,-0.115C0.358,-0.115 0.381,-0.119 0.401,-0.127C0.42,-0.135 0.436,-0.145 0.447,-0.159C0.458,-0.173 0.463,-0.19 0.463,-0.208C0.463,-0.225 0.458,-0.239 0.448,-0.25C0.439,-0.261 0.424,-0.271 0.406,-0.279C0.387,-0.287 0.364,-0.294 0.338,-0.3L0.258,-0.32C0.196,-0.335 0.148,-0.359 0.113,-0.391C0.078,-0.423 0.061,-0.465 0.061,-0.518C0.061,-0.562 0.073,-0.6 0.096,-0.633C0.12,-0.666 0.153,-0.692 0.194,-0.71C0.235,-0.728 0.282,-0.737 0.335,-0.737C0.388,-0.737 0.435,-0.728 0.475,-0.71C0.515,-0.691 0.547,-0.666 0.569,-0.633C0.591,-0.6 0.603,-0.563 0.604,-0.52L0.46,-0.52C0.457,-0.549 0.444,-0.572 0.422,-0.588C0.4,-0.604 0.37,-0.612 0.333,-0.612C0.308,-0.612 0.286,-0.608 0.268,-0.601C0.251,-0.594 0.237,-0.584 0.228,-0.571C0.218,-0.558 0.214,-0.544 0.214,-0.528C0.214,-0.51 0.219,-0.495 0.23,-0.483C0.241,-0.471 0.255,-0.462 0.273,-0.454C0.291,-0.447 0.31,-0.441 0.33,-0.436L0.396,-0.42C0.426,-0.413 0.455,-0.404 0.481,-0.392C0.508,-0.38 0.531,-0.366 0.551,-0.349C0.57,-0.332 0.586,-0.311 0.597,-0.288C0.608,-0.265 0.613,-0.238 0.613,-0.207C0.613,-0.163 0.602,-0.125 0.58,-0.092C0.558,-0.059 0.526,-0.034 0.484,-0.016C0.442,0.002 0.392,0.011 0.333,0.011Z" style="fill:rgb(93,103,230);fill-rule:nonzero;"/>
            </g>
            <g transform="matrix(139.493446,0,0,139.493446,1136.366376,501)">
            </g>
        </g>
    </g>
</svg>
