<?xml version="1.0" encoding="UTF-8" standalone="no"?><!DOCTYPE svg PUBLIC "-//W3C//DTD SVG 1.1//EN" "http://www.w3.org/Graphics/SVG/1.1/DTD/svg11.dtd"><svg width="100%" height="100%" viewBox="0 0 192 192" version="1.1" xmlns="http://www.w3.org/2000/svg" xmlns:xlink="http://www.w3.org/1999/xlink" xml:space="preserve" xmlns:serif="http://www.serif.com/" style="fill-rule:evenodd;clip-rule:evenodd;stroke-linejoin:round;stroke-miterlimit:2;"><rect x="-16.56" y="-0" width="225.12" height="192" style="fill:#363636;"/><path d="M144.912,98.913c0.692,-23.262 -13.07,-42.42 -32.393,-50.13c-9.398,-3.75 -24.56,-5.274 -39.052,-0.899c-16.091,4.857 -26.987,22.419 -49.467,16.218c-29.727,-8.2 -34.71,-52.881 1.446,-62.503c5.379,-1.431 5.435,-1.623 55.999,-1.529c14.94,0.028 47.34,-2.747 77.717,24.078c40.605,35.857 46.522,104 0.911,144.302c-28.984,25.611 -62.609,23.442 -67.213,23.469c-23.318,0.135 -56.145,2.348 -75.979,-28.793c-5.768,-9.056 -8.294,-22.721 -7.463,-30.709c2.872,-27.598 19.423,-36.234 38.588,-49.067c3.809,-2.55 -0.022,1.771 -0.66,8.737c-2.178,23.764 5.46,36.841 19.343,46.669c30.123,21.323 76.41,1.31 78.222,-39.843Z" style="fill:#5d67e6;"/></svg>