<?xml version="1.0" encoding="UTF-8" standalone="no"?>
<!DOCTYPE svg PUBLIC "-//W3C//DTD SVG 1.1//EN" "http://www.w3.org/Graphics/SVG/1.1/DTD/svg11.dtd">
<svg width="100%" height="100%" viewBox="0 0 1600 800" version="1.1" xmlns="http://www.w3.org/2000/svg" xmlns:xlink="http://www.w3.org/1999/xlink" xml:space="preserve" xmlns:serif="http://www.serif.com/" style="fill-rule:evenodd;clip-rule:evenodd;stroke-linejoin:round;stroke-miterlimit:2;">
    <g transform="matrix(3.055592,0,0,3.020785,-97.950504,-97.496923)">
        <path d="M229.661,168.709C230.605,136.623 211.838,110.198 185.49,99.563C172.675,94.391 152,92.289 132.238,98.324C110.296,105.023 95.438,129.247 64.784,120.693C24.248,109.382 17.453,47.752 66.756,34.48C74.091,32.506 74.168,32.241 143.117,32.371C163.489,32.41 207.672,28.583 249.094,65.583C304.464,115.042 312.532,209.034 250.336,264.624C210.812,299.949 164.962,296.958 158.684,296.994C126.887,297.18 82.123,300.234 55.077,257.28C47.211,244.788 43.766,225.94 44.9,214.921C48.816,176.855 71.386,164.942 97.52,147.242C102.713,143.724 97.49,149.685 96.62,159.293C93.649,192.072 104.065,210.109 122.997,223.665C164.073,253.077 227.191,225.472 229.661,168.709Z" style="fill:rgb(93,103,230);"/>
    </g>
    <g transform="matrix(1.243075,0,0,1.243075,419.406782,139.795762)">
        <g transform="matrix(139.493446,0,0,139.493446,297,501)">
            <path d="M0.322,-0L0.133,-0L0.133,-0.128L0.315,-0.128C0.361,-0.128 0.401,-0.137 0.432,-0.153C0.464,-0.17 0.488,-0.196 0.504,-0.23C0.52,-0.265 0.528,-0.31 0.528,-0.364C0.528,-0.418 0.52,-0.463 0.504,-0.497C0.488,-0.532 0.464,-0.558 0.432,-0.574C0.401,-0.591 0.362,-0.599 0.315,-0.599L0.13,-0.599L0.13,-0.728L0.324,-0.728C0.397,-0.728 0.46,-0.713 0.513,-0.684C0.565,-0.655 0.605,-0.613 0.634,-0.559C0.662,-0.505 0.676,-0.44 0.676,-0.364C0.676,-0.289 0.662,-0.223 0.634,-0.169C0.606,-0.115 0.565,-0.073 0.512,-0.044C0.459,-0.015 0.395,-0 0.322,-0ZM0.215,-0.728L0.215,-0L0.066,-0L0.066,-0.728L0.215,-0.728Z" style="fill:rgb(93,103,230);fill-rule:nonzero;"/>
        </g>
        <g transform="matrix(139.493446,0,0,139.493446,388.676071,501)">
            <path d="M0.215,0.011C0.18,0.011 0.149,0.004 0.122,-0.008C0.094,-0.02 0.073,-0.038 0.057,-0.062C0.041,-0.087 0.033,-0.117 0.033,-0.153C0.033,-0.183 0.039,-0.209 0.05,-0.229C0.061,-0.249 0.076,-0.266 0.096,-0.278C0.115,-0.291 0.137,-0.3 0.162,-0.307C0.186,-0.313 0.212,-0.318 0.239,-0.32C0.271,-0.324 0.296,-0.327 0.316,-0.329C0.335,-0.332 0.349,-0.337 0.358,-0.343C0.367,-0.349 0.372,-0.357 0.372,-0.369L0.372,-0.372C0.372,-0.387 0.368,-0.4 0.362,-0.411C0.355,-0.422 0.345,-0.43 0.333,-0.436C0.32,-0.442 0.304,-0.444 0.286,-0.444C0.267,-0.444 0.251,-0.442 0.237,-0.436C0.223,-0.43 0.212,-0.423 0.203,-0.413C0.194,-0.404 0.187,-0.393 0.183,-0.381L0.049,-0.404C0.058,-0.435 0.074,-0.462 0.096,-0.484C0.117,-0.507 0.145,-0.524 0.177,-0.535C0.209,-0.547 0.246,-0.553 0.286,-0.553C0.316,-0.553 0.344,-0.549 0.372,-0.542C0.4,-0.535 0.424,-0.525 0.446,-0.51C0.468,-0.495 0.486,-0.476 0.499,-0.452C0.512,-0.429 0.518,-0.401 0.518,-0.368L0.518,-0L0.379,-0L0.379,-0.076L0.374,-0.076C0.366,-0.059 0.354,-0.044 0.339,-0.031C0.325,-0.018 0.307,-0.008 0.286,-0C0.266,0.007 0.242,0.011 0.215,0.011ZM0.256,-0.092C0.279,-0.092 0.3,-0.097 0.317,-0.106C0.334,-0.115 0.348,-0.127 0.358,-0.143C0.368,-0.159 0.373,-0.176 0.373,-0.195L0.373,-0.254C0.368,-0.251 0.362,-0.248 0.353,-0.246C0.344,-0.243 0.335,-0.241 0.324,-0.239C0.313,-0.237 0.303,-0.235 0.292,-0.233C0.282,-0.232 0.272,-0.23 0.264,-0.229C0.246,-0.227 0.23,-0.223 0.217,-0.217C0.203,-0.211 0.193,-0.203 0.185,-0.194C0.177,-0.184 0.174,-0.172 0.174,-0.157C0.174,-0.143 0.177,-0.131 0.184,-0.121C0.192,-0.112 0.201,-0.104 0.214,-0.099C0.226,-0.095 0.24,-0.092 0.256,-0.092Z" style="fill:rgb(93,103,230);fill-rule:nonzero;"/>
        </g>
        <g transform="matrix(139.493446,0,0,139.493446,460.585924,501)">
            <path d="M0.334,-0.546L0.334,-0.434L0.01,-0.434L0.01,-0.546L0.334,-0.546ZM0.085,-0.676L0.231,-0.676L0.231,-0.16C0.231,-0.142 0.235,-0.13 0.243,-0.121C0.251,-0.113 0.263,-0.109 0.281,-0.109C0.287,-0.109 0.295,-0.11 0.305,-0.111C0.315,-0.112 0.322,-0.114 0.328,-0.115L0.349,-0.005C0.332,-0 0.316,0.003 0.3,0.005C0.284,0.007 0.269,0.008 0.254,0.008C0.199,0.008 0.157,-0.006 0.128,-0.032C0.099,-0.059 0.085,-0.097 0.085,-0.147L0.085,-0.676Z" style="fill:rgb(93,103,230);fill-rule:nonzero;"/>
        </g>
        <g transform="matrix(139.493446,0,0,139.493446,503.278326,501)">
            <path d="M0.215,0.011C0.18,0.011 0.149,0.004 0.122,-0.008C0.094,-0.02 0.073,-0.038 0.057,-0.062C0.041,-0.087 0.033,-0.117 0.033,-0.153C0.033,-0.183 0.039,-0.209 0.05,-0.229C0.061,-0.249 0.076,-0.266 0.096,-0.278C0.115,-0.291 0.137,-0.3 0.162,-0.307C0.186,-0.313 0.212,-0.318 0.239,-0.32C0.271,-0.324 0.296,-0.327 0.316,-0.329C0.335,-0.332 0.349,-0.337 0.358,-0.343C0.367,-0.349 0.372,-0.357 0.372,-0.369L0.372,-0.372C0.372,-0.387 0.368,-0.4 0.362,-0.411C0.355,-0.422 0.345,-0.43 0.333,-0.436C0.32,-0.442 0.304,-0.444 0.286,-0.444C0.267,-0.444 0.251,-0.442 0.237,-0.436C0.223,-0.43 0.212,-0.423 0.203,-0.413C0.194,-0.404 0.187,-0.393 0.183,-0.381L0.049,-0.404C0.058,-0.435 0.074,-0.462 0.096,-0.484C0.117,-0.507 0.145,-0.524 0.177,-0.535C0.209,-0.547 0.246,-0.553 0.286,-0.553C0.316,-0.553 0.344,-0.549 0.372,-0.542C0.4,-0.535 0.424,-0.525 0.446,-0.51C0.468,-0.495 0.486,-0.476 0.499,-0.452C0.512,-0.429 0.518,-0.401 0.518,-0.368L0.518,-0L0.379,-0L0.379,-0.076L0.374,-0.076C0.366,-0.059 0.354,-0.044 0.339,-0.031C0.325,-0.018 0.307,-0.008 0.286,-0C0.266,0.007 0.242,0.011 0.215,0.011ZM0.256,-0.092C0.279,-0.092 0.3,-0.097 0.317,-0.106C0.334,-0.115 0.348,-0.127 0.358,-0.143C0.368,-0.159 0.373,-0.176 0.373,-0.195L0.373,-0.254C0.368,-0.251 0.362,-0.248 0.353,-0.246C0.344,-0.243 0.335,-0.241 0.324,-0.239C0.313,-0.237 0.303,-0.235 0.292,-0.233C0.282,-0.232 0.272,-0.23 0.264,-0.229C0.246,-0.227 0.23,-0.223 0.217,-0.217C0.203,-0.211 0.193,-0.203 0.185,-0.194C0.177,-0.184 0.174,-0.172 0.174,-0.157C0.174,-0.143 0.177,-0.131 0.184,-0.121C0.192,-0.112 0.201,-0.104 0.214,-0.099C0.226,-0.095 0.24,-0.092 0.256,-0.092Z" style="fill:rgb(93,103,230);fill-rule:nonzero;"/>
        </g>
        <g transform="matrix(139.493446,0,0,139.493446,575.18818,501)">
            <path d="M0.062,-0.546L0.209,-0.546L0.209,0.028C0.209,0.069 0.201,0.103 0.185,0.129C0.168,0.155 0.145,0.174 0.115,0.186C0.084,0.198 0.048,0.204 0.005,0.204L-0.024,0.204L-0.024,0.089L-0.005,0.089C0.02,0.089 0.037,0.084 0.047,0.073C0.057,0.062 0.062,0.047 0.062,0.026L0.062,-0.546ZM0.136,-0.617C0.114,-0.617 0.095,-0.625 0.079,-0.639C0.063,-0.654 0.056,-0.672 0.056,-0.692C0.056,-0.713 0.063,-0.731 0.079,-0.746C0.095,-0.76 0.114,-0.768 0.136,-0.768C0.158,-0.768 0.177,-0.76 0.193,-0.746C0.208,-0.731 0.216,-0.714 0.216,-0.692C0.216,-0.672 0.208,-0.654 0.193,-0.639C0.177,-0.625 0.158,-0.617 0.136,-0.617Z" style="fill:rgb(93,103,230);fill-rule:nonzero;"/>
        </g>
        <g transform="matrix(139.493446,0,0,139.493446,603.950365,501)">
            <path d="M0.215,0.011C0.18,0.011 0.149,0.004 0.122,-0.008C0.094,-0.02 0.073,-0.038 0.057,-0.062C0.041,-0.087 0.033,-0.117 0.033,-0.153C0.033,-0.183 0.039,-0.209 0.05,-0.229C0.061,-0.249 0.076,-0.266 0.096,-0.278C0.115,-0.291 0.137,-0.3 0.162,-0.307C0.186,-0.313 0.212,-0.318 0.239,-0.32C0.271,-0.324 0.296,-0.327 0.316,-0.329C0.335,-0.332 0.349,-0.337 0.358,-0.343C0.367,-0.349 0.372,-0.357 0.372,-0.369L0.372,-0.372C0.372,-0.387 0.368,-0.4 0.362,-0.411C0.355,-0.422 0.345,-0.43 0.333,-0.436C0.32,-0.442 0.304,-0.444 0.286,-0.444C0.267,-0.444 0.251,-0.442 0.237,-0.436C0.223,-0.43 0.212,-0.423 0.203,-0.413C0.194,-0.404 0.187,-0.393 0.183,-0.381L0.049,-0.404C0.058,-0.435 0.074,-0.462 0.096,-0.484C0.117,-0.507 0.145,-0.524 0.177,-0.535C0.209,-0.547 0.246,-0.553 0.286,-0.553C0.316,-0.553 0.344,-0.549 0.372,-0.542C0.4,-0.535 0.424,-0.525 0.446,-0.51C0.468,-0.495 0.486,-0.476 0.499,-0.452C0.512,-0.429 0.518,-0.401 0.518,-0.368L0.518,-0L0.379,-0L0.379,-0.076L0.374,-0.076C0.366,-0.059 0.354,-0.044 0.339,-0.031C0.325,-0.018 0.307,-0.008 0.286,-0C0.266,0.007 0.242,0.011 0.215,0.011ZM0.256,-0.092C0.279,-0.092 0.3,-0.097 0.317,-0.106C0.334,-0.115 0.348,-0.127 0.358,-0.143C0.368,-0.159 0.373,-0.176 0.373,-0.195L0.373,-0.254C0.368,-0.251 0.362,-0.248 0.353,-0.246C0.344,-0.243 0.335,-0.241 0.324,-0.239C0.313,-0.237 0.303,-0.235 0.292,-0.233C0.282,-0.232 0.272,-0.23 0.264,-0.229C0.246,-0.227 0.23,-0.223 0.217,-0.217C0.203,-0.211 0.193,-0.203 0.185,-0.194C0.177,-0.184 0.174,-0.172 0.174,-0.157C0.174,-0.143 0.177,-0.131 0.184,-0.121C0.192,-0.112 0.201,-0.104 0.214,-0.099C0.226,-0.095 0.24,-0.092 0.256,-0.092Z" style="fill:rgb(93,103,230);fill-rule:nonzero;"/>
        </g>
        <g transform="matrix(139.493446,0,0,139.493446,675.860218,501)">
            <path d="M0.305,0.216C0.259,0.216 0.22,0.21 0.186,0.199C0.152,0.187 0.125,0.171 0.104,0.151C0.082,0.131 0.068,0.108 0.06,0.082L0.186,0.047C0.19,0.057 0.197,0.067 0.207,0.077C0.216,0.086 0.229,0.094 0.245,0.1C0.261,0.106 0.281,0.109 0.304,0.109C0.342,0.109 0.371,0.101 0.392,0.084C0.414,0.067 0.425,0.04 0.425,0.004L0.425,-0.097L0.413,-0.097C0.407,-0.082 0.397,-0.068 0.385,-0.054C0.372,-0.041 0.356,-0.03 0.336,-0.021C0.316,-0.012 0.291,-0.008 0.262,-0.008C0.221,-0.008 0.183,-0.017 0.15,-0.037C0.116,-0.056 0.09,-0.085 0.07,-0.125C0.05,-0.164 0.04,-0.214 0.04,-0.274C0.04,-0.335 0.05,-0.387 0.07,-0.428C0.09,-0.47 0.117,-0.501 0.151,-0.521C0.185,-0.542 0.222,-0.553 0.262,-0.553C0.293,-0.553 0.319,-0.548 0.339,-0.537C0.36,-0.527 0.377,-0.514 0.39,-0.499C0.403,-0.483 0.412,-0.469 0.419,-0.454L0.425,-0.454L0.425,-0.546L0.569,-0.546L0.569,-0.005C0.569,0.045 0.558,0.086 0.535,0.118C0.513,0.151 0.482,0.175 0.442,0.192C0.402,0.208 0.356,0.216 0.305,0.216ZM0.308,-0.119C0.333,-0.119 0.354,-0.125 0.371,-0.138C0.389,-0.15 0.402,-0.168 0.411,-0.191C0.42,-0.214 0.425,-0.242 0.425,-0.275C0.425,-0.307 0.42,-0.335 0.411,-0.359C0.402,-0.383 0.389,-0.402 0.372,-0.415C0.354,-0.429 0.333,-0.435 0.308,-0.435C0.282,-0.435 0.26,-0.428 0.243,-0.415C0.225,-0.401 0.212,-0.382 0.203,-0.358C0.194,-0.334 0.19,-0.306 0.19,-0.275C0.19,-0.243 0.194,-0.216 0.203,-0.192C0.212,-0.169 0.226,-0.151 0.243,-0.138C0.261,-0.125 0.282,-0.119 0.308,-0.119Z" style="fill:rgb(93,103,230);fill-rule:nonzero;"/>
        </g>
        <g transform="matrix(139.493446,0,0,139.493446,754.91639,501)">
            <path d="M0.309,0.011C0.254,0.011 0.206,-0.001 0.165,-0.024C0.125,-0.046 0.094,-0.079 0.072,-0.121C0.051,-0.163 0.04,-0.213 0.04,-0.27C0.04,-0.326 0.05,-0.376 0.072,-0.418C0.093,-0.46 0.124,-0.493 0.163,-0.517C0.203,-0.541 0.249,-0.553 0.302,-0.553C0.338,-0.553 0.371,-0.547 0.402,-0.536C0.433,-0.524 0.46,-0.507 0.483,-0.484C0.507,-0.461 0.525,-0.433 0.538,-0.398C0.551,-0.363 0.558,-0.323 0.558,-0.276L0.558,-0.235L0.1,-0.235L0.1,-0.327L0.487,-0.327L0.418,-0.302C0.418,-0.331 0.414,-0.355 0.405,-0.376C0.396,-0.397 0.384,-0.414 0.367,-0.425C0.349,-0.437 0.328,-0.442 0.303,-0.442C0.278,-0.442 0.256,-0.437 0.239,-0.425C0.221,-0.413 0.207,-0.397 0.198,-0.377C0.189,-0.357 0.184,-0.334 0.184,-0.309L0.184,-0.244C0.184,-0.212 0.19,-0.186 0.2,-0.164C0.211,-0.143 0.226,-0.127 0.245,-0.116C0.264,-0.105 0.286,-0.1 0.312,-0.1C0.329,-0.1 0.344,-0.102 0.358,-0.107C0.372,-0.112 0.384,-0.119 0.394,-0.129C0.404,-0.138 0.412,-0.15 0.417,-0.164L0.55,-0.139C0.541,-0.109 0.526,-0.083 0.504,-0.06C0.482,-0.038 0.455,-0.02 0.422,-0.008C0.389,0.004 0.352,0.011 0.309,0.011Z" style="fill:rgb(93,103,230);fill-rule:nonzero;"/>
        </g>
        <g transform="matrix(139.493446,0,0,139.493446,828.940477,501)">
            <path d="M0.062,-0L0.062,-0.546L0.204,-0.546L0.204,-0.451L0.21,-0.451C0.22,-0.484 0.237,-0.51 0.26,-0.527C0.284,-0.545 0.311,-0.553 0.342,-0.553C0.349,-0.553 0.357,-0.553 0.366,-0.552C0.375,-0.551 0.382,-0.55 0.389,-0.548L0.389,-0.417C0.383,-0.42 0.373,-0.422 0.361,-0.423C0.348,-0.424 0.337,-0.425 0.326,-0.425C0.303,-0.425 0.283,-0.42 0.266,-0.41C0.248,-0.401 0.234,-0.387 0.224,-0.37C0.214,-0.353 0.209,-0.333 0.209,-0.311L0.209,-0L0.062,-0Z" style="fill:rgb(93,103,230);fill-rule:nonzero;"/>
        </g>
        <g transform="matrix(139.493446,0,0,139.493446,876.690924,501)">
            <path d="M0.279,0.011C0.235,0.011 0.196,0.004 0.163,-0.008C0.129,-0.021 0.101,-0.039 0.08,-0.063C0.058,-0.087 0.044,-0.115 0.038,-0.149L0.174,-0.173C0.182,-0.147 0.194,-0.128 0.212,-0.116C0.23,-0.103 0.254,-0.097 0.284,-0.097C0.311,-0.097 0.334,-0.102 0.35,-0.113C0.366,-0.123 0.374,-0.137 0.374,-0.153C0.374,-0.167 0.368,-0.179 0.357,-0.188C0.345,-0.197 0.328,-0.204 0.303,-0.209L0.209,-0.229C0.157,-0.239 0.118,-0.258 0.091,-0.284C0.065,-0.309 0.052,-0.343 0.052,-0.384C0.052,-0.418 0.062,-0.449 0.081,-0.474C0.1,-0.499 0.127,-0.519 0.161,-0.532C0.195,-0.546 0.236,-0.553 0.282,-0.553C0.325,-0.553 0.362,-0.547 0.394,-0.535C0.425,-0.523 0.451,-0.506 0.47,-0.484C0.49,-0.463 0.503,-0.437 0.509,-0.407L0.379,-0.384C0.374,-0.403 0.363,-0.418 0.347,-0.43C0.332,-0.442 0.31,-0.448 0.284,-0.448C0.26,-0.448 0.24,-0.443 0.223,-0.432C0.207,-0.422 0.199,-0.409 0.199,-0.392C0.199,-0.379 0.204,-0.367 0.215,-0.358C0.225,-0.348 0.243,-0.341 0.269,-0.335L0.367,-0.316C0.42,-0.305 0.459,-0.288 0.485,-0.263C0.511,-0.239 0.524,-0.207 0.524,-0.168C0.524,-0.133 0.513,-0.101 0.492,-0.074C0.471,-0.048 0.443,-0.027 0.406,-0.012C0.369,0.003 0.327,0.011 0.279,0.011Z" style="fill:rgb(93,103,230);fill-rule:nonzero;"/>
        </g>
        <g transform="matrix(139.493446,0,0,139.493446,954.843851,501)">
        </g>
    </g>
</svg>
