<?xml version="1.0" encoding="UTF-8" standalone="no"?>
<!DOCTYPE svg PUBLIC "-//W3C//DTD SVG 1.1//EN" "http://www.w3.org/Graphics/SVG/1.1/DTD/svg11.dtd">
<svg width="100%" height="100%" viewBox="0 0 800 800" version="1.1" xmlns="http://www.w3.org/2000/svg" xmlns:xlink="http://www.w3.org/1999/xlink" xml:space="preserve" xmlns:serif="http://www.serif.com/" style="fill-rule:evenodd;clip-rule:evenodd;stroke-linejoin:round;stroke-miterlimit:2;">
    <g transform="matrix(2.291694,0,0,2.265588,24.729132,21.591732)">
        <path d="M229.661,168.709C230.605,136.623 211.838,110.198 185.49,99.563C172.675,94.391 152,92.289 132.238,98.324C110.296,105.023 95.438,129.247 64.784,120.693C24.248,109.382 17.453,47.752 66.756,34.48C74.091,32.506 74.168,32.241 143.117,32.371C163.489,32.41 207.672,28.583 249.094,65.583C304.464,115.042 312.532,209.034 250.336,264.624C210.812,299.949 164.962,296.958 158.684,296.994C126.887,297.18 82.123,300.234 55.077,257.28C47.211,244.788 43.766,225.94 44.9,214.921C48.816,176.855 71.386,164.942 97.52,147.242C102.713,143.724 97.49,149.685 96.62,159.293C93.649,192.072 104.065,210.109 122.997,223.665C164.073,253.077 227.191,225.472 229.661,168.709Z" style="fill:rgb(93,103,230);"/>
    </g>
</svg>
